<svg width="64" height="64" viewBox="0 0 64 64" fill="none" xmlns="http://www.w3.org/2000/svg">
<path d="M52.44 44.8293C51.7018 46.5508 50.7895 48.1922 49.7173 49.728C48.2826 51.7725 47.1129 53.1876 46.208 53.9733C44.8089 55.2587 43.3049 55.92 41.696 55.9573C40.5422 55.9591 39.1537 55.6276 37.5306 54.9627C35.9057 54.3013 34.4097 53.9716 33.0426 53.9733C31.6115 53.9716 30.0737 54.3013 28.4293 54.9627C26.7866 55.6293 25.4577 55.9787 24.4426 56.0107C22.9031 56.0782 21.3662 55.3991 19.832 53.9733C18.8542 53.12 17.6302 51.6551 16.16 49.5787C14.5866 47.3653 13.2933 44.7956 12.28 41.8693C11.1955 38.7049 10.6524 35.6409 10.6506 32.6773C10.6506 29.2818 11.3849 26.3556 12.8533 23.8987C13.9649 21.9721 15.5537 20.3641 17.4666 19.2293C19.3532 18.0978 21.5069 17.4885 23.7066 17.464C24.9333 17.4658 26.5422 17.8409 28.5333 18.5893C31.52 19.712 31.8053 19.7147 32.3626 19.7147C32.784 19.7147 34.2 19.272 36.6106 18.3867C38.8844 17.5689 40.8071 17.2276 42.3786 17.3627C46.6453 17.704 49.8453 19.3885 51.9786 22.416C48.1653 24.7289 46.2782 27.9618 46.3173 32.1147C46.3529 35.3502 47.5235 38.0373 49.8293 40.176C50.8468 41.1522 52.0355 41.9324 53.336 42.4773C53.0533 43.2951 52.7546 44.0791 52.44 44.8293ZM42.6613 6.34667C42.6595 8.88178 41.736 11.2453 39.8906 13.4373C37.6613 16.04 34.968 17.5467 32.048 17.3093C32.0101 16.9908 31.9914 16.6702 31.992 16.3493C31.992 13.9147 33.048 11.312 34.9333 9.18134C35.872 8.10401 37.0657 7.20712 38.5146 6.49067C39.96 5.7849 41.3253 5.39823 42.6106 5.33067C42.6462 5.67201 42.6631 6.01067 42.6613 6.34667Z" fill="black"/>
</svg>
