<svg width="56" height="56" viewBox="0 0 56 56" fill="none" xmlns="http://www.w3.org/2000/svg">
<path d="M53.749 28.5839C53.749 26.4235 53.5737 24.8471 53.1943 23.2123H28.5256V32.9628H43.0056C42.7138 35.386 41.1373 39.0352 37.634 41.4873L37.5849 41.8138L45.3847 47.8562L45.925 47.9101C50.8879 43.3266 53.749 36.5829 53.749 28.5839Z" fill="#4285F4"/>
<path d="M28.5255 54.2743C35.6194 54.2743 41.5749 51.9387 45.9249 47.9101L37.6338 41.4874C35.4152 43.0347 32.4373 44.1148 28.5255 44.1148C21.5774 44.1148 15.6804 39.5315 13.5782 33.1965L13.2701 33.2227L5.15978 39.4993L5.05371 39.7942C9.37431 48.3771 18.2492 54.2743 28.5255 54.2743Z" fill="#34A853"/>
<path d="M13.5785 33.1965C13.0238 31.5617 12.7028 29.8099 12.7028 28C12.7028 26.1899 13.0239 24.4383 13.5493 22.8035L13.5346 22.4553L5.32267 16.0778L5.05399 16.2056C3.27326 19.7673 2.25146 23.7669 2.25146 28C2.25146 32.2331 3.27326 36.2325 5.05399 39.7941L13.5785 33.1965Z" fill="#FBBC05"/>
<path d="M28.5255 11.885C33.4591 11.885 36.7871 14.0161 38.6848 15.7971L46.1 8.55701C41.5459 4.32394 35.6194 1.72569 28.5255 1.72569C18.2492 1.72569 9.37431 7.62277 5.05371 16.2056L13.549 22.8035C15.6804 16.4685 21.5774 11.885 28.5255 11.885Z" fill="#EB4335"/>
</svg>
