<svg width="228" height="73" viewBox="0 0 228 73" fill="none" xmlns="http://www.w3.org/2000/svg">
<g filter="url(#filter0_d_148_4429)">
<path d="M217.2 32.5359C219.866 34.0755 219.866 37.9245 217.2 39.4641L187.2 56.7846C184.533 58.3242 181.2 56.3997 181.2 53.3205V18.6795C181.2 15.6003 184.533 13.6758 187.2 15.2154L217.2 32.5359Z" fill="#F7931D"/>
</g>
<path d="M24.8116 52.0938L17.4679 22.9062V54.5312C17.4679 56.2812 17.0721 57.5938 16.2804 58.4688C15.5096 59.3438 14.4783 59.7812 13.1866 59.7812C11.9366 59.7812 10.9158 59.3542 10.1241 58.5C9.33248 57.625 8.93665 56.3021 8.93665 54.5312V18.2812C8.93665 16.2812 9.45748 14.9375 10.4991 14.25C11.5408 13.5417 12.9471 13.1875 14.7179 13.1875H17.5929C19.3221 13.1875 20.5721 13.3438 21.3429 13.6562C22.1346 13.9688 22.7179 14.5312 23.0929 15.3438C23.4679 16.1562 23.895 17.4792 24.3741 19.3125L31.0304 44.4062L37.6866 19.3125C38.1658 17.4792 38.5929 16.1562 38.9679 15.3438C39.3429 14.5312 39.9158 13.9688 40.6866 13.6562C41.4783 13.3438 42.7387 13.1875 44.4679 13.1875H47.3429C49.1137 13.1875 50.52 13.5417 51.5616 14.25C52.6033 14.9375 53.1241 16.2812 53.1241 18.2812V54.5312C53.1241 56.2812 52.7283 57.5938 51.9366 58.4688C51.1658 59.3438 50.1241 59.7812 48.8116 59.7812C47.5825 59.7812 46.5721 59.3438 45.7804 58.4688C44.9887 57.5938 44.5929 56.2812 44.5929 54.5312V22.9062L37.2491 52.0938C36.77 53.9896 36.3741 55.3854 36.0616 56.2812C35.77 57.1562 35.2179 57.9583 34.4054 58.6875C33.5929 59.4167 32.4679 59.7812 31.0304 59.7812C29.9471 59.7812 29.0304 59.5417 28.2804 59.0625C27.5304 58.6042 26.9471 58.0104 26.5304 57.2812C26.1137 56.5521 25.7804 55.75 25.5304 54.875C25.3012 53.9792 25.0616 53.0521 24.8116 52.0938ZM93.9991 42.4375C93.9991 44.9792 93.6033 47.3229 92.8116 49.4688C92.02 51.6146 90.8741 53.4583 89.3741 55C87.8741 56.5417 86.0825 57.7292 83.9991 58.5625C81.9158 59.375 79.5721 59.7812 76.9679 59.7812C74.3846 59.7812 72.0616 59.3646 69.9991 58.5312C67.9366 57.6979 66.145 56.5104 64.6241 54.9688C63.1241 53.4062 61.9783 51.5729 61.1866 49.4688C60.4158 47.3438 60.0304 45 60.0304 42.4375C60.0304 39.8542 60.4262 37.4896 61.2179 35.3438C62.0096 33.1979 63.145 31.3646 64.6241 29.8438C66.1033 28.3229 67.895 27.1562 69.9991 26.3438C72.1033 25.5104 74.4262 25.0938 76.9679 25.0938C79.5512 25.0938 81.895 25.5104 83.9991 26.3438C86.1033 27.1771 87.9054 28.3646 89.4054 29.9062C90.9054 31.4479 92.0408 33.2812 92.8116 35.4062C93.6033 37.5312 93.9991 39.875 93.9991 42.4375ZM85.4366 42.4375C85.4366 38.9583 84.6658 36.25 83.1241 34.3125C81.6033 32.375 79.5512 31.4062 76.9679 31.4062C75.3012 31.4062 73.8325 31.8438 72.5616 32.7188C71.2908 33.5729 70.3116 34.8438 69.6241 36.5312C68.9366 38.2188 68.5929 40.1875 68.5929 42.4375C68.5929 44.6667 68.9262 46.6146 69.5929 48.2812C70.2804 49.9479 71.2491 51.2292 72.4991 52.125C73.77 53 75.2596 53.4375 76.9679 53.4375C79.5512 53.4375 81.6033 52.4688 83.1241 50.5312C84.6658 48.5729 85.4366 45.875 85.4366 42.4375ZM105.905 30.4062L112.812 49.7812L120.249 29.5625C120.832 27.9375 121.405 26.7917 121.968 26.125C122.53 25.4375 123.385 25.0938 124.53 25.0938C125.614 25.0938 126.53 25.4583 127.28 26.1875C128.051 26.9167 128.437 27.7604 128.437 28.7188C128.437 29.0938 128.364 29.5312 128.218 30.0312C128.093 30.5312 127.937 31 127.749 31.4375C127.582 31.875 127.385 32.375 127.155 32.9375L118.968 53.25C118.739 53.8333 118.437 54.5729 118.062 55.4688C117.707 56.3646 117.301 57.1354 116.843 57.7812C116.405 58.4062 115.853 58.8958 115.187 59.25C114.541 59.6042 113.749 59.7812 112.812 59.7812C111.603 59.7812 110.635 59.5104 109.905 58.9688C109.197 58.4062 108.666 57.8021 108.312 57.1562C107.978 56.4896 107.405 55.1875 106.593 53.25L98.4679 33.1562C98.2804 32.6562 98.0825 32.1562 97.8741 31.6562C97.6866 31.1562 97.52 30.6458 97.3741 30.125C97.2491 29.6042 97.1866 29.1562 97.1866 28.7812C97.1866 28.1979 97.3637 27.625 97.7179 27.0625C98.0721 26.4792 98.5616 26.0104 99.1866 25.6562C99.8116 25.2812 100.489 25.0938 101.218 25.0938C102.635 25.0938 103.603 25.5 104.124 26.3125C104.666 27.125 105.26 28.4896 105.905 30.4062ZM142.437 60.8438L143.218 58.9375L132.718 32.5C132.072 30.9792 131.749 29.875 131.749 29.1875C131.749 28.4583 131.937 27.7812 132.312 27.1562C132.687 26.5312 133.197 26.0312 133.843 25.6562C134.51 25.2812 135.197 25.0938 135.905 25.0938C137.135 25.0938 138.062 25.4896 138.687 26.2812C139.312 27.0521 139.864 28.1667 140.343 29.625L147.562 50.625L154.405 31.0938C154.947 29.5104 155.437 28.2708 155.874 27.375C156.312 26.4792 156.77 25.875 157.249 25.5625C157.749 25.25 158.447 25.0938 159.343 25.0938C159.989 25.0938 160.603 25.2708 161.187 25.625C161.791 25.9583 162.249 26.4167 162.562 27C162.895 27.5833 163.062 28.1979 163.062 28.8438C162.978 29.2396 162.843 29.8021 162.655 30.5312C162.468 31.2604 162.239 32 161.968 32.75L150.843 61.875C149.885 64.4375 148.947 66.4479 148.03 67.9062C147.114 69.3646 145.895 70.4792 144.374 71.25C142.874 72.0417 140.843 72.4375 138.28 72.4375C135.78 72.4375 133.905 72.1667 132.655 71.625C131.405 71.0833 130.78 70.0938 130.78 68.6562C130.78 67.6771 131.072 66.9167 131.655 66.375C132.26 65.8542 133.145 65.5938 134.312 65.5938C134.77 65.5938 135.218 65.6562 135.655 65.7812C136.197 65.9062 136.666 65.9688 137.062 65.9688C138.041 65.9688 138.812 65.8229 139.374 65.5312C139.937 65.2396 140.437 64.7292 140.874 64C141.332 63.2917 141.853 62.2396 142.437 60.8438Z" fill="white"/>
<defs>
<filter id="filter0_d_148_4429" x="177.2" y="14.6735" width="46" height="50.653" filterUnits="userSpaceOnUse" color-interpolation-filters="sRGB">
<feFlood flood-opacity="0" result="BackgroundImageFix"/>
<feColorMatrix in="SourceAlpha" type="matrix" values="0 0 0 0 0 0 0 0 0 0 0 0 0 0 0 0 0 0 127 0" result="hardAlpha"/>
<feOffset dy="4"/>
<feGaussianBlur stdDeviation="2"/>
<feComposite in2="hardAlpha" operator="out"/>
<feColorMatrix type="matrix" values="0 0 0 0 0 0 0 0 0 0 0 0 0 0 0 0 0 0 0.25 0"/>
<feBlend mode="normal" in2="BackgroundImageFix" result="effect1_dropShadow_148_4429"/>
<feBlend mode="normal" in="SourceGraphic" in2="effect1_dropShadow_148_4429" result="shape"/>
</filter>
</defs>
</svg>
